<?xml version="1.0" encoding="UTF-8"?>
<svg version="1.1" xmlns="http://www.w3.org/2000/svg" width="1920" height="595">
<path d="M0 0 C633.6 0 1267.2 0 1920 0 C1920 196.35 1920 392.7 1920 595 C1286.4 595 652.8 595 0 595 C0 398.65 0 202.3 0 0 Z " fill="#141B1E" transform="translate(0,0)"/>
<path d="M0 0 C2.875 0.4375 2.875 0.4375 5.875 2.4375 C6.205 2.1075 6.535 1.7775 6.875 1.4375 C9.20797433 1.39657063 11.54205225 1.39508277 13.875 1.4375 C13.99906007 5.47575066 14.08955045 9.51325638 14.1496582 13.55297852 C14.17472617 14.92557102 14.20879082 16.29803102 14.25219727 17.67016602 C14.31317531 19.64800696 14.33861009 21.62684184 14.36328125 23.60546875 C14.38946533 24.79422607 14.41564941 25.9829834 14.44262695 27.20776367 C13.70721767 31.39216343 12.17280938 32.8468795 8.875 35.4375 C5.54296875 35.92578125 5.54296875 35.92578125 2.0625 35.75 C0.90105469 35.70488281 -0.26039062 35.65976563 -1.45703125 35.61328125 C-2.77767578 35.52626953 -2.77767578 35.52626953 -4.125 35.4375 C-4.125 33.7875 -4.125 32.1375 -4.125 30.4375 C-1.155 30.1075 1.815 29.7775 4.875 29.4375 C5.205 27.7875 5.535 26.1375 5.875 24.4375 C5.215 24.7675 4.555 25.0975 3.875 25.4375 C-1.91051532 25.99738858 -1.91051532 25.99738858 -4.125 25.4375 C-7.1443687 22.64630855 -8.04777403 20.92748545 -8.69140625 16.84375 C-8.69011719 15.5546875 -8.68882813 14.265625 -8.6875 12.9375 C-8.70941406 11.6484375 -8.73132812 10.359375 -8.75390625 9.03125 C-7.83126353 3.7590059 -5.39860328 0.75580446 0 0 Z " fill="#F8F8F8" transform="translate(1846.125,54.5625)"/>
<path d="M0 0 C0.99 0.66 1.98 1.32 3 2 C3.33 1.67 3.66 1.34 4 1 C5.99958364 0.95919217 8.00045254 0.95745644 10 1 C10.12406007 5.03825066 10.21455045 9.07575638 10.2746582 13.11547852 C10.29972617 14.48807102 10.33379082 15.86053102 10.37719727 17.23266602 C10.43817531 19.21050696 10.46361009 21.18934184 10.48828125 23.16796875 C10.51446533 24.35672607 10.54064941 25.5454834 10.56762695 26.77026367 C9.83679342 30.92862786 8.2091997 32.358533 5 35 C2.35541621 36.32229189 0.32238699 36.09677194 -2.625 36.0625 C-3.62789063 36.05347656 -4.63078125 36.04445313 -5.6640625 36.03515625 C-6.43492187 36.02355469 -7.20578125 36.01195312 -8 36 C-8 34.02 -8 32.04 -8 30 C-4.37 29.67 -0.74 29.34 3 29 C3 27.35 3 25.7 3 24 C2.34 24.33 1.68 24.66 1 25 C-6.21726041 25.58203713 -6.21726041 25.58203713 -9.4375 23.1875 C-12.89306264 18.3497123 -12.61163292 12.71672899 -12 7 C-9.53816798 0.96792818 -6.29039814 -0.38512642 0 0 Z " fill="#F2F2F2" transform="translate(269,335)"/>
<path d="M0 0 C2.875 0.4375 2.875 0.4375 5.875 2.4375 C6.205 1.7775 6.535 1.1175 6.875 0.4375 C8.855 0.4375 10.835 0.4375 12.875 0.4375 C12.97405303 4.77907052 13.04655301 9.12003854 13.09472656 13.46240234 C13.11481301 14.9387559 13.14208801 16.41503019 13.17675781 17.89111328 C13.22541184 20.01614962 13.24799673 22.14013234 13.265625 24.265625 C13.28657227 25.5434082 13.30751953 26.82119141 13.32910156 28.13769531 C12.79818133 31.99571565 11.91487712 33.10141591 8.875 35.4375 C6.11047967 36.81976016 3.8288637 36.53275387 0.75 36.5 C-0.34570312 36.49097656 -1.44140625 36.48195313 -2.5703125 36.47265625 C-3.41335938 36.46105469 -4.25640625 36.44945312 -5.125 36.4375 C-5.125 34.4575 -5.125 32.4775 -5.125 30.4375 C-1.495 30.1075 2.135 29.7775 5.875 29.4375 C5.875 27.7875 5.875 26.1375 5.875 24.4375 C5.545 24.7675 5.215 25.0975 4.875 25.4375 C2.94921875 25.7109375 2.94921875 25.7109375 0.5625 25.8125 C-0.60732422 25.88597656 -0.60732422 25.88597656 -1.80078125 25.9609375 C-4.125 25.4375 -4.125 25.4375 -6.3828125 23.3828125 C-8.56782895 19.68886092 -8.69177378 17.21128094 -8.6875 12.9375 C-8.70941406 11.6484375 -8.73132813 10.359375 -8.75390625 9.03125 C-7.83126353 3.7590059 -5.39860328 0.75580446 0 0 Z " fill="#E5991D" transform="translate(1014.125,334.5625)"/>
<path d="M0 0 C2.875 0.4375 2.875 0.4375 5.875 2.4375 C6.205 1.7775 6.535 1.1175 6.875 0.4375 C8.855 0.4375 10.835 0.4375 12.875 0.4375 C12.97405303 4.77907052 13.04655301 9.12003854 13.09472656 13.46240234 C13.11481301 14.9387559 13.14208801 16.41503019 13.17675781 17.89111328 C13.22541184 20.01614962 13.24799673 22.14013234 13.265625 24.265625 C13.28657227 25.5434082 13.30751953 26.82119141 13.32910156 28.13769531 C12.79818133 31.99571565 11.91487712 33.10141591 8.875 35.4375 C6.11047967 36.81976016 3.8288637 36.53275387 0.75 36.5 C-0.34570312 36.49097656 -1.44140625 36.48195313 -2.5703125 36.47265625 C-3.41335938 36.46105469 -4.25640625 36.44945312 -5.125 36.4375 C-5.125 34.4575 -5.125 32.4775 -5.125 30.4375 C-1.495 30.1075 2.135 29.7775 5.875 29.4375 C5.875 27.7875 5.875 26.1375 5.875 24.4375 C5.215 24.7675 4.555 25.0975 3.875 25.4375 C-1.91051532 25.99738858 -1.91051532 25.99738858 -4.125 25.4375 C-7.1443687 22.64630855 -8.04777403 20.92748545 -8.69140625 16.84375 C-8.69011719 15.5546875 -8.68882812 14.265625 -8.6875 12.9375 C-8.70941406 11.6484375 -8.73132813 10.359375 -8.75390625 9.03125 C-7.83126353 3.7590059 -5.39860328 0.75580446 0 0 Z " fill="#E6991D" transform="translate(755.125,334.5625)"/>
<path d="M0 0 C2.76383879 1.08964486 3.52518756 2.10065378 4.90234375 4.75 C5.22280857 7.65727992 5.36709608 10.28636549 5.33984375 13.1875 C5.36981445 14.31381836 5.36981445 14.31381836 5.40039062 15.46289062 C5.3969936 19.32530939 5.13103973 21.36076247 3.1328125 24.76171875 C0.90234375 26.75 0.90234375 26.75 -1.16796875 27.2734375 C-6.87543403 26.86111111 -6.87543403 26.86111111 -9.09765625 25.75 C-9.42765625 29.05 -9.75765625 32.35 -10.09765625 35.75 C-12.07765625 35.75 -14.05765625 35.75 -16.09765625 35.75 C-16.09765625 24.2 -16.09765625 12.65 -16.09765625 0.75 C-14.44765625 0.75 -12.79765625 0.75 -11.09765625 0.75 C-10.76765625 1.74 -10.43765625 2.73 -10.09765625 3.75 C-9.60265625 3.069375 -9.10765625 2.38875 -8.59765625 1.6875 C-5.3972856 -0.79278725 -3.86284024 -0.47451396 0 0 Z " fill="#EB9D1D" transform="translate(130.09765625,335.25)"/>
<path d="M0 0 C3.70581614 1.68446188 5.90466996 3.52554029 8 7 C8.3984375 10.05859375 8.3984375 10.05859375 8.375 13.4375 C8.38273438 14.54996094 8.39046875 15.66242188 8.3984375 16.80859375 C7.9590102 20.32832026 7.11795696 22.18102912 5 25 C0.76447144 27.82368571 -3.02477314 27.66653757 -8 27 C-10.93423195 25.20353146 -12.47205355 24.0558929 -14 21 C-14.20353342 18.54306092 -14.32340647 16.14757347 -14.375 13.6875 C-14.42398438 12.37136719 -14.47296875 11.05523437 -14.5234375 9.69921875 C-13.88196127 5.16580089 -12.51716014 3.81478432 -9 1 C-5.93570224 -0.53214888 -3.3834358 -0.22938548 0 0 Z " fill="#26A75D" transform="translate(588,398)"/>
<path d="M0 0 C2.92804594 1.90663457 3.51260265 2.5579273 4.6875 5.75 C5.0234375 9.02734375 5.0234375 9.02734375 5.0625 12.6875 C5.09085938 13.89277344 5.11921875 15.09804688 5.1484375 16.33984375 C4.60947361 20.32726303 3.48815018 21.92332147 0.6875 24.75 C-3.01240228 26.59995114 -7.27417141 26.21986842 -11.3125 25.75 C-14.86930172 23.64495409 -16.00718936 22.66593192 -17.3125 18.75 C-18.60164709 6.95723403 -18.60164709 6.95723403 -15.99609375 2.49609375 C-11.00489944 -2.13778911 -6.31272377 -2.38215991 0 0 Z " fill="#EF9F1D" transform="translate(188.3125,336.25)"/>
<path d="M0 0 C2.6875 1.6875 2.6875 1.6875 4.6875 4.6875 C4.91455078 6.95581055 4.91455078 6.95581055 4.8828125 9.57421875 C4.87636719 10.51201172 4.86992188 11.44980469 4.86328125 12.41601562 C4.84652344 13.39248047 4.82976562 14.36894531 4.8125 15.375 C4.80347656 16.36306641 4.79445313 17.35113281 4.78515625 18.36914062 C4.7615843 20.80883765 4.72868022 23.24804697 4.6875 25.6875 C2.3775 25.6875 0.0675 25.6875 -2.3125 25.6875 C-2.6425 25.0275 -2.9725 24.3675 -3.3125 23.6875 C-4.3025 24.3475 -5.2925 25.0075 -6.3125 25.6875 C-8.46875 25.98828125 -8.46875 25.98828125 -10.8125 26 C-11.97265625 26.02513672 -11.97265625 26.02513672 -13.15625 26.05078125 C-15.3125 25.6875 -15.3125 25.6875 -17.0703125 24.44921875 C-18.63830082 22.22543658 -18.71453401 20.89090089 -18.6875 18.1875 C-18.69523437 17.4140625 -18.70296875 16.640625 -18.7109375 15.84375 C-18.21362694 13.15242224 -17.49509022 12.30715971 -15.3125 10.6875 C-12.38241222 9.62806743 -9.6587517 9.57946689 -6.5625 9.625 C-5.76328125 9.63402344 -4.9640625 9.64304687 -4.140625 9.65234375 C-3.53734375 9.66394531 -2.9340625 9.67554687 -2.3125 9.6875 C-2.9725 8.3675 -3.6325 7.0475 -4.3125 5.6875 C-5.9625 5.6875 -7.6125 5.6875 -9.3125 5.6875 C-9.6425 6.3475 -9.9725 7.0075 -10.3125 7.6875 C-12.6225 7.6875 -14.9325 7.6875 -17.3125 7.6875 C-16.8172783 4.02285945 -16.2916794 1.97917646 -13.3125 -0.3125 C-8.51877521 -1.91040826 -4.71060878 -1.86646763 0 0 Z " fill="#F5F5F5" transform="translate(1798.3125,56.3125)"/>
<path d="M0 0 C2.1875 1.6875 2.1875 1.6875 4.1875 4.6875 C4.41455078 6.95581055 4.41455078 6.95581055 4.3828125 9.57421875 C4.37636719 10.51201172 4.36992187 11.44980469 4.36328125 12.41601562 C4.34652344 13.39248047 4.32976562 14.36894531 4.3125 15.375 C4.30347656 16.36306641 4.29445313 17.35113281 4.28515625 18.36914062 C4.2615843 20.80883765 4.22868022 23.24804697 4.1875 25.6875 C2.2075 25.6875 0.2275 25.6875 -1.8125 25.6875 C-2.1425 25.0275 -2.4725 24.3675 -2.8125 23.6875 C-3.4725 24.3475 -4.1325 25.0075 -4.8125 25.6875 C-8.19832391 26.24787155 -11.42331182 26.21143247 -14.8125 25.6875 C-17.5 23.625 -17.5 23.625 -18.8125 20.6875 C-18.88502219 16.55373523 -18.45537006 14.49627201 -15.875 11.25 C-11.51990598 9.02801325 -7.60969226 9.35216229 -2.8125 9.6875 C-2.8125 8.0375 -2.8125 6.3875 -2.8125 4.6875 C-6.22906024 4.52072718 -6.22906024 4.52072718 -9.8125 4.6875 C-10.4725 5.3475 -11.1325 6.0075 -11.8125 6.6875 C-14.4375 6.8125 -14.4375 6.8125 -16.8125 6.6875 C-16.6875 4.375 -16.6875 4.375 -15.8125 1.6875 C-10.71910452 -1.82936831 -5.6777501 -2.64961672 0 0 Z " fill="#EF6901" transform="translate(476.8125,336.3125)"/>
<path d="M0 0 C5.65116279 2.30232558 5.65116279 2.30232558 7 5 C7.08426094 6.6674606 7.10725143 8.33825187 7.09765625 10.0078125 C7.09443359 10.99394531 7.09121094 11.98007812 7.08789062 12.99609375 C7.07951172 14.02863281 7.07113281 15.06117188 7.0625 16.125 C7.05798828 17.16527344 7.05347656 18.20554687 7.04882812 19.27734375 C7.03701952 21.85161962 7.02055075 24.42578146 7 27 C5.35 27 3.7 27 2 27 C1.67 26.01 1.34 25.02 1 24 C0.39478516 24.72896484 0.39478516 24.72896484 -0.22265625 25.47265625 C-2.96893375 27.83264417 -5.34330569 27.48026981 -8.8359375 27.34375 C-11 27 -11 27 -13.5625 25.4375 C-15.56331202 22.04481874 -15.55326548 19.87285839 -15 16 C-13.13291495 13.63502561 -11.67938569 12.33969285 -9 11 C-7.29297265 10.93003986 -5.58331997 10.91559846 -3.875 10.9375 C-2.96492187 10.94652344 -2.05484375 10.95554687 -1.1171875 10.96484375 C-0.41851563 10.97644531 0.28015625 10.98804688 1 11 C0.34 9.35 -0.32 7.7 -1 6 C-3.41645782 5.83312552 -3.41645782 5.83312552 -6 6 C-6.66 6.66 -7.32 7.32 -8 8 C-11.125 8.125 -11.125 8.125 -14 8 C-13.07870137 4.90108642 -12.32841931 3.27211886 -9.8125 1.1875 C-6.25034984 -0.31651896 -3.84180142 -0.40440015 0 0 Z " fill="#F36A01" transform="translate(761,398)"/>
<path d="M0 0 C0.763125 0.165 1.52625 0.33 2.3125 0.5 C5.35823524 1.06664842 7.46554639 1.16444727 10.4375 0.25 C13 0 13 0 15.13574219 1.64550781 C17.40065743 4.50601627 17.47069307 5.81881186 17.390625 9.421875 C17.37128906 10.95908203 17.37128906 10.95908203 17.3515625 12.52734375 C17.31804687 13.59082031 17.28453125 14.65429688 17.25 15.75 C17.23195313 16.82894531 17.21390625 17.90789062 17.1953125 19.01953125 C17.14821415 21.68058788 17.082456 24.33984254 17 27 C15.02 27 13.04 27 11 27 C10.67 19.74 10.34 12.48 10 5 C9.34 5 8.68 5 8 5 C7.67 12.26 7.34 19.52 7 27 C5.35 27 3.7 27 2 27 C1.67 19.74 1.34 12.48 1 5 C0.34 5 -0.32 5 -1 5 C-1.33 12.26 -1.66 19.52 -2 27 C-3.65 27 -5.3 27 -7 27 C-7 18.42 -7 9.84 -7 1 C-5.68 1 -4.36 1 -3 1 C-2.67 1.66 -2.34 2.32 -2 3 C-1.34 2.01 -0.68 1.02 0 0 Z " fill="#E56503" transform="translate(494,335)"/>
<path d="M0 0 C3.96287721 0.38104589 5.4323945 1.57539752 8.25 4.3125 C9.4763757 6.76525141 9.36415314 8.3630781 9.34765625 11.1015625 C9.34443359 12.04257813 9.34121094 12.98359375 9.33789062 13.953125 C9.32951172 14.93796875 9.32113281 15.9228125 9.3125 16.9375 C9.30798828 17.93007812 9.30347656 18.92265625 9.29882812 19.9453125 C9.28702145 22.4011016 9.270554 24.85677104 9.25 27.3125 C6.61 27.3125 3.97 27.3125 1.25 27.3125 C0.92 21.0425 0.59 14.7725 0.25 8.3125 C-3.49691447 6.91479416 -3.49691447 6.91479416 -5.75 8.3125 C-6.08 14.5825 -6.41 20.8525 -6.75 27.3125 C-9.06 27.3125 -11.37 27.3125 -13.75 27.3125 C-13.75 18.7325 -13.75 10.1525 -13.75 1.3125 C-10.41666667 1.3125 -7.08333333 1.3125 -3.75 1.3125 C-2.75 0.3125 -2.75 0.3125 0 0 Z " fill="#F2F2F2" transform="translate(1822.75,54.6875)"/>
<path d="M0 0 C3 2.4375 3 2.4375 5 5 C5.33 5.33 5.66 5.66 6 6 C6.14193337 9.00331018 6.04236378 11.99217134 6 15 C0.72 15 -4.56 15 -10 15 C-8.67082039 20.47825081 -8.67082039 20.47825081 -7 22 C-4.54190002 22.2500773 -4.54190002 22.2500773 -2 22 C-1.34 21.34 -0.68 20.68 0 20 C3.125 19.875 3.125 19.875 6 20 C4.52866521 24.65922684 4.52866521 24.65922684 2.23046875 26.140625 C-1.76749072 27.68099467 -5.79114429 27.57207747 -10 27 C-12.93423195 25.20353146 -14.47205355 24.0558929 -16 21 C-17.05533009 9.24060755 -17.05533009 9.24060755 -14.953125 4.77734375 C-10.74322819 -0.26215037 -6.26204583 -1.00582083 0 0 Z " fill="#F26A01" transform="translate(820,398)"/>
<path d="M0 0 C5.5 3 5.5 3 7 6 C7.13559318 9.00474497 7.04299016 11.99068847 7 15 C1.72 15 -3.56 15 -9 15 C-7.67082039 20.47825081 -7.67082039 20.47825081 -6 22 C-3.54190002 22.2500773 -3.54190002 22.2500773 -1 22 C-0.34 21.34 0.32 20.68 1 20 C4.125 19.875 4.125 19.875 7 20 C5.52820289 24.66069086 5.52820289 24.66069086 3.23046875 26.13671875 C-0.77947407 27.68872814 -4.78350541 27.68910349 -9 27 C-11.82424288 24.80977082 -13.41508603 23.16982793 -15 20 C-16.04817082 9.15891899 -16.04817082 9.15891899 -13.953125 4.84375 C-9.9594517 0.05134204 -6.04133288 -0.84063073 0 0 Z " fill="#D23222" transform="translate(272,398)"/>
<path d="M0 0 C3.125 -0.625 3.125 -0.625 7 0 C9.49515761 3.08511895 11.26536376 6.44177181 13 10 C14.65 6.7 16.3 3.4 18 0 C20.31 0 22.62 0 25 0 C24.41089844 1.02480469 23.82179688 2.04960938 23.21484375 3.10546875 C22.4549762 4.46572548 21.695903 5.82642617 20.9375 7.1875 C20.54755859 7.86103516 20.15761719 8.53457031 19.75585938 9.22851562 C17.5674003 13.17210014 17.5674003 13.17210014 17.03125 17.5703125 C18.3051408 20.76531282 19.87183744 23.6921241 21.5625 26.6875 C25 32.79476861 25 32.79476861 25 35 C22.69 35 20.38 35 18 35 C17.65066406 34.28972656 17.30132813 33.57945313 16.94140625 32.84765625 C16.25884766 31.46900391 16.25884766 31.46900391 15.5625 30.0625 C15.11003906 29.14597656 14.65757813 28.22945312 14.19140625 27.28515625 C13.19474606 25.09471096 13.19474606 25.09471096 12 24 C9.03 29.445 9.03 29.445 6 35 C4.02 35 2.04 35 0 35 C1.4384192 29.67784895 4.05143164 25.41331097 6.953125 20.78125 C8.35504994 17.05673299 7.60536863 15.5868522 6 12 C4.9940752 9.85784927 3.95205611 7.7322837 2.875 5.625 C2.33617187 4.56539062 1.79734375 3.50578125 1.2421875 2.4140625 C0.83226562 1.61742187 0.42234375 0.82078125 0 0 Z " fill="#26A75D" transform="translate(1664,47)"/>
<path d="M0 0 C5.5 3 5.5 3 7 6 C7.13559318 9.00474497 7.04299016 11.99068847 7 15 C1.72 15 -3.56 15 -9 15 C-7.67082039 20.47825081 -7.67082039 20.47825081 -6 22 C-3.54190002 22.2500773 -3.54190002 22.2500773 -1 22 C-0.34 21.34 0.32 20.68 1 20 C4.125 19.875 4.125 19.875 7 20 C5.52820289 24.66069086 5.52820289 24.66069086 3.23046875 26.13671875 C-0.78219976 27.68978309 -4.78035845 27.68278989 -9 27 C-12.34625024 24.47323961 -13.67977847 22.96066458 -15 19 C-16.00903614 9.01054217 -16.00903614 9.01054217 -13.953125 4.9140625 C-9.9400841 0.0748073 -6.10273695 -0.8491749 0 0 Z " fill="#F16A01" transform="translate(531,335)"/>
<path d="M0 0 C3.02391552 1.73907588 5.41748661 3.83497322 7 7 C7 9.64 7 12.28 7 15 C1.39 15 -4.22 15 -10 15 C-8.67082039 20.47825081 -8.67082039 20.47825081 -7 22 C-4.66702567 22.04092937 -2.33294775 22.04241723 0 22 C0 21.34 0 20.68 0 20 C1.98 20 3.96 20 6 20 C5.63906058 22.61681078 5.24357682 23.77091516 3.29296875 25.60546875 C0.5312755 27.28506754 -1.2211375 27.46431221 -4.4375 27.5 C-5.36433594 27.5309375 -6.29117187 27.561875 -7.24609375 27.59375 C-11.20364649 26.7404904 -12.61415708 25.23792968 -15 22 C-15.48000643 19.09014735 -15.66086891 16.88194313 -15.5625 14 C-15.57345703 13.30132812 -15.58441406 12.60265625 -15.59570312 11.8828125 C-15.5445731 8.26962386 -15.08592145 6.13660239 -13.15234375 3.0625 C-9.45690295 -0.47868465 -4.92345486 -0.85463745 0 0 Z " fill="#25A55C" transform="translate(503,398)"/>
<path d="M0 0 C2.4375 0.375 2.4375 0.375 5 1 C7.95003206 1.13257824 7.95003206 1.13257824 10.5 0.3125 C13 0 13 0 14.63793945 1.1340332 C16.5054511 3.69244718 16.34291323 5.39646671 16.29296875 8.54296875 C16.28330078 9.61611328 16.27363281 10.68925781 16.26367188 11.79492188 C16.23853516 12.91447266 16.21339844 14.03402344 16.1875 15.1875 C16.16719727 16.88422852 16.16719727 16.88422852 16.14648438 18.61523438 C16.11109958 21.41063317 16.06172948 24.20507892 16 27 C14.35 27 12.7 27 11 27 C10.67 19.74 10.34 12.48 10 5 C9.34 5 8.68 5 8 5 C7.67 12.26 7.34 19.52 7 27 C5.35 27 3.7 27 2 27 C1.67 19.74 1.34 12.48 1 5 C0.34 5 -0.32 5 -1 5 C-1.33 12.26 -1.66 19.52 -2 27 C-3.65 27 -5.3 27 -7 27 C-7 18.42 -7 9.84 -7 1 C-4.525 1.495 -4.525 1.495 -2 2 C-1.34 1.34 -0.68 0.68 0 0 Z " fill="#E16403" transform="translate(782,398)"/>
<path d="M0 0 C3.62342508 1.6470114 6.16816086 3.4327343 8 7 C8 9.64 8 12.28 8 15 C2.72 15 -2.56 15 -8 15 C-7.34 17.31 -6.68 19.62 -6 22 C-3.08347826 22.16681109 -3.08347826 22.16681109 0 22 C0.66 21.34 1.32 20.68 2 20 C5.125 19.875 5.125 19.875 8 20 C6.19587357 23.26460973 5.16605307 24.88929795 2 27 C-2.88516144 27.71207438 -6.8100735 27.72852643 -11.0625 25.125 C-14.36285909 21.50525132 -14.27632705 18.39240549 -14.375 13.6875 C-14.42398437 12.37136719 -14.47296875 11.05523437 -14.5234375 9.69921875 C-13.88196127 5.16580089 -12.51716014 3.81478432 -9 1 C-5.93570224 -0.53214888 -3.3834358 -0.22938548 0 0 Z " fill="#F4F4F4" transform="translate(329,335)"/>
<path d="M0 0 C3.62342508 1.6470114 6.16816086 3.4327343 8 7 C8 9.64 8 12.28 8 15 C2.39 15 -3.22 15 -9 15 C-8.01 17.31 -7.02 19.62 -6 22 C-3.69 22 -1.38 22 1 22 C1 21.34 1 20.68 1 20 C2.98 20 4.96 20 7 20 C6.63617598 22.63772411 6.24083045 23.77544188 4.265625 25.6171875 C1.60361849 27.24192941 0.09266409 27.37378755 -3 27.3125 C-3.845625 27.30863281 -4.69125 27.30476563 -5.5625 27.30078125 C-8.18184242 26.97756111 -9.78732546 26.42583984 -12 25 C-14.45802095 21.31296857 -14.40285195 18.39825909 -14.4375 14.125 C-14.47037109 13.41730469 -14.50324219 12.70960938 -14.53710938 11.98046875 C-14.57848701 7.94050698 -14.17944363 6.22000081 -11.59765625 3.0546875 C-7.52580613 -0.1660541 -5.20619342 -0.35296227 0 0 Z " fill="#F2F3F3" transform="translate(358,335)"/>
<path d="M0 0 C1.65 0 3.3 0 5 0 C5.66 4.62 6.32 9.24 7 14 C8.56788252 7.01435412 8.56788252 7.01435412 10 0 C11.98 0 13.96 0 16 0 C16.66 4.62 17.32 9.24 18 14 C19.56788252 7.01435412 19.56788252 7.01435412 21 0 C22.65 0 24.3 0 26 0 C25.71623808 3.02176257 25.42325009 6.04216139 25.125 9.0625 C25.00705078 10.33383789 25.00705078 10.33383789 24.88671875 11.63085938 C24.38350594 16.64363309 23.54885904 21.20374323 22 26 C20.00045254 26.04254356 17.99958364 26.04080783 16 26 C14.5000589 24.5000589 14.68392349 23.05340395 14.46484375 20.96484375 C14.38613037 20.23644287 14.30741699 19.50804199 14.22631836 18.75756836 C14.1310083 17.8269458 14.03569824 16.89632324 13.9375 15.9375 C13.4734375 11.5134375 13.4734375 11.5134375 13 7 C12.01 13.27 11.02 19.54 10 26 C7.69 26 5.38 26 3 26 C2.4926043 22.79279138 1.995421 19.58407837 1.5 16.375 C1.35691406 15.47136719 1.21382813 14.56773437 1.06640625 13.63671875 C0.36265833 9.04560134 -0.18584778 4.66168185 0 0 Z " fill="#25A35B" transform="translate(457,399)"/>
<path d="M0 0 C3.99153112 -0.39132658 6.34697717 -0.36909986 9.875 1.625 C13.25448959 6.99242465 12.90736687 12.77673781 13 19 C15.64 19.33 18.28 19.66 21 20 C21 21.98 21 23.96 21 26 C18.03 26 15.06 26 12 26 C12.08701172 27.42892578 12.08701172 27.42892578 12.17578125 28.88671875 C12.5435454 39.11056208 12.5435454 39.11056208 9.9375 43.375 C6.37401014 45.34629226 4.01354268 45.39348458 0 45 C0 43.35 0 41.7 0 40 C1.65 39.34 3.3 38.68 5 38 C5.07347656 36.62714844 5.07347656 36.62714844 5.1484375 35.2265625 C5.22320312 34.03804688 5.29796875 32.84953125 5.375 31.625 C5.44460937 30.44164062 5.51421875 29.25828125 5.5859375 28.0390625 C6 25 6 25 8 23 C7.50886719 22.46890625 7.01773438 21.9378125 6.51171875 21.390625 C4.56990223 18.31984538 4.69508306 16.35078604 4.8125 12.75 C4.83957031 11.67234375 4.86664063 10.5946875 4.89453125 9.484375 C4.94673828 8.25460937 4.94673828 8.25460937 5 7 C3.35 6.67 1.7 6.34 0 6 C0 4.02 0 2.04 0 0 Z " fill="#EFEFEF" transform="translate(114,448)"/>
<path d="M0 0 C0 1.98 0 3.96 0 6 C-1.65 6.33 -3.3 6.66 -5 7 C-5.03738281 7.90363281 -5.07476563 8.80726563 -5.11328125 9.73828125 C-5.17902344 10.91777344 -5.24476562 12.09726562 -5.3125 13.3125 C-5.37050781 14.48425781 -5.42851563 15.65601563 -5.48828125 16.86328125 C-6.01604768 20.0983686 -6.42380724 21.08684881 -9 23 C-8.01 23.66 -7.02 24.32 -6 25 C-5.70703125 28.2578125 -5.70703125 28.2578125 -5.8125 32.125 C-5.83957031 33.40632813 -5.86664062 34.68765625 -5.89453125 36.0078125 C-5.92933594 36.99523437 -5.96414063 37.98265625 -6 39 C-4.02 39.33 -2.04 39.66 0 40 C0 41.65 0 43.3 0 45 C-7.30862697 45.4872418 -7.30862697 45.4872418 -10.22265625 43.43359375 C-12.60452262 40.17226902 -12.56716362 37.81679689 -12.6875 33.8125 C-12.44604643 29.58839741 -12.44604643 29.58839741 -14 26 C-16.32817964 25.63239269 -18.6618385 25.29758419 -21 25 C-21 23.35 -21 21.7 -21 20 C-17.04 19.505 -17.04 19.505 -13 19 C-12.96261719 17.95199219 -12.92523437 16.90398437 -12.88671875 15.82421875 C-12.82105485 14.44527695 -12.75460765 13.06637229 -12.6875 11.6875 C-12.65366211 10.65206055 -12.65366211 10.65206055 -12.61914062 9.59570312 C-12.34794745 4.49234063 -12.34794745 4.49234063 -10.64453125 2.08203125 C-7.1638374 -0.20811648 -4.03243339 -0.08960963 0 0 Z " fill="#F5F6F6" transform="translate(1085,322)"/>
<path d="M0 0 C2.69990662 1.79993774 4.5418865 3.083773 6 6 C6.08400529 7.59447464 6.10727467 9.19240545 6.09765625 10.7890625 C6.09443359 11.73007812 6.09121094 12.67109375 6.08789062 13.640625 C6.07951172 14.62546875 6.07113281 15.6103125 6.0625 16.625 C6.05798828 17.61757813 6.05347656 18.61015625 6.04882812 19.6328125 C6.03702145 22.0886016 6.020554 24.54427104 6 27 C4.02 27 2.04 27 0 27 C-0.01981934 26.43490723 -0.03963867 25.86981445 -0.06005859 25.28759766 C-0.15518236 22.73292003 -0.26491058 20.17907459 -0.375 17.625 C-0.4059375 16.73554688 -0.436875 15.84609375 -0.46875 14.9296875 C-0.50742187 14.07890625 -0.54609375 13.228125 -0.5859375 12.3515625 C-0.6173584 11.56604004 -0.6487793 10.78051758 -0.68115234 9.97119141 C-0.8399465 7.76997061 -0.8399465 7.76997061 -3 6 C-6.30683466 6.28983269 -6.30683466 6.28983269 -9 8 C-9.15620555 9.41327947 -9.25056173 10.8335459 -9.31640625 12.25390625 C-9.35830078 13.10791016 -9.40019531 13.96191406 -9.44335938 14.84179688 C-9.50233398 16.18854492 -9.50233398 16.18854492 -9.5625 17.5625 C-9.60568359 18.46419922 -9.64886719 19.36589844 -9.69335938 20.29492188 C-9.79978142 22.52978485 -9.90179988 24.76476308 -10 27 C-11.98 27 -13.96 27 -16 27 C-16 18.42 -16 9.84 -16 1 C-13.33333333 1 -10.66666667 1 -8 1 C-5.14675563 -0.42662219 -3.16545451 -0.31033868 0 0 Z " fill="#F36A01" transform="translate(734,398)"/>
<path d="M0 0 C2.69990662 1.79993774 4.5418865 3.083773 6 6 C6.08400529 7.59447464 6.10727467 9.19240545 6.09765625 10.7890625 C6.09443359 11.73007812 6.09121094 12.67109375 6.08789062 13.640625 C6.07951172 14.62546875 6.07113281 15.6103125 6.0625 16.625 C6.05798828 17.61757813 6.05347656 18.61015625 6.04882812 19.6328125 C6.03702145 22.0886016 6.020554 24.54427104 6 27 C4.02 27 2.04 27 0 27 C-0.01981934 26.43490723 -0.03963867 25.86981445 -0.06005859 25.28759766 C-0.15518236 22.73292003 -0.26491058 20.17907459 -0.375 17.625 C-0.4059375 16.73554688 -0.436875 15.84609375 -0.46875 14.9296875 C-0.50742187 14.07890625 -0.54609375 13.228125 -0.5859375 12.3515625 C-0.6173584 11.56604004 -0.6487793 10.78051758 -0.68115234 9.97119141 C-0.8399465 7.76997061 -0.8399465 7.76997061 -3 6 C-6.30683466 6.28983269 -6.30683466 6.28983269 -9 8 C-9.15620555 9.41327947 -9.25056173 10.8335459 -9.31640625 12.25390625 C-9.35830078 13.10791016 -9.40019531 13.96191406 -9.44335938 14.84179688 C-9.50233398 16.18854492 -9.50233398 16.18854492 -9.5625 17.5625 C-9.60568359 18.46419922 -9.64886719 19.36589844 -9.69335938 20.29492188 C-9.79978142 22.52978485 -9.90179988 24.76476308 -10 27 C-11.98 27 -13.96 27 -16 27 C-16 18.42 -16 9.84 -16 1 C-13.33333333 1 -10.66666667 1 -8 1 C-5.14675563 -0.42662219 -3.16545451 -0.31033868 0 0 Z " fill="#EB9D1D" transform="translate(734,335)"/>
<path d="M0 0 C2.69990662 1.79993774 4.5418865 3.083773 6 6 C6.08400529 7.59447464 6.10727467 9.19240545 6.09765625 10.7890625 C6.09443359 11.73007812 6.09121094 12.67109375 6.08789062 13.640625 C6.07951172 14.62546875 6.07113281 15.6103125 6.0625 16.625 C6.05798828 17.61757813 6.05347656 18.61015625 6.04882812 19.6328125 C6.03702145 22.0886016 6.020554 24.54427104 6 27 C4.02 27 2.04 27 0 27 C-0.01981934 26.43490723 -0.03963867 25.86981445 -0.06005859 25.28759766 C-0.15518236 22.73292003 -0.26491058 20.17907459 -0.375 17.625 C-0.4059375 16.73554688 -0.436875 15.84609375 -0.46875 14.9296875 C-0.50742187 14.07890625 -0.54609375 13.228125 -0.5859375 12.3515625 C-0.6173584 11.56604004 -0.6487793 10.78051758 -0.68115234 9.97119141 C-0.8399465 7.76997061 -0.8399465 7.76997061 -3 6 C-6.30683466 6.28983269 -6.30683466 6.28983269 -9 8 C-9.15620555 9.41327947 -9.25056173 10.8335459 -9.31640625 12.25390625 C-9.35830078 13.10791016 -9.40019531 13.96191406 -9.44335938 14.84179688 C-9.50233398 16.18854492 -9.50233398 16.18854492 -9.5625 17.5625 C-9.60568359 18.46419922 -9.64886719 19.36589844 -9.69335938 20.29492188 C-9.79978142 22.52978485 -9.90179988 24.76476308 -10 27 C-11.98 27 -13.96 27 -16 27 C-16 18.42 -16 9.84 -16 1 C-13.33333333 1 -10.66666667 1 -8 1 C-5.14675563 -0.42662219 -3.16545451 -0.31033868 0 0 Z " fill="#E79A1D" transform="translate(993,335)"/>
<path d="M0 0 C3.81228477 0.53371987 5.39334721 1.78389443 8.125 4.4375 C9.3513757 6.89025141 9.23915314 8.4880781 9.22265625 11.2265625 C9.21943359 12.16757812 9.21621094 13.10859375 9.21289062 14.078125 C9.20451172 15.06296875 9.19613281 16.0478125 9.1875 17.0625 C9.18298828 18.05507813 9.17847656 19.04765625 9.17382812 20.0703125 C9.16202145 22.5261016 9.145554 24.98177104 9.125 27.4375 C7.145 27.4375 5.165 27.4375 3.125 27.4375 C3.10518066 26.87240723 3.08536133 26.30731445 3.06494141 25.72509766 C2.96981764 23.17042003 2.86008942 20.61657459 2.75 18.0625 C2.7190625 17.17304688 2.688125 16.28359375 2.65625 15.3671875 C2.61757813 14.51640625 2.57890625 13.665625 2.5390625 12.7890625 C2.5076416 12.00354004 2.4762207 11.21801758 2.44384766 10.40869141 C2.2850535 8.20747061 2.2850535 8.20747061 0.125 6.4375 C-3.18183466 6.72733269 -3.18183466 6.72733269 -5.875 8.4375 C-6.03120555 9.85077947 -6.12556173 11.2710459 -6.19140625 12.69140625 C-6.23330078 13.54541016 -6.27519531 14.39941406 -6.31835938 15.27929688 C-6.37733398 16.62604492 -6.37733398 16.62604492 -6.4375 18 C-6.48068359 18.90169922 -6.52386719 19.80339844 -6.56835938 20.73242188 C-6.67478142 22.96728485 -6.77679988 25.20226308 -6.875 27.4375 C-8.855 27.4375 -10.835 27.4375 -12.875 27.4375 C-12.875 18.8575 -12.875 10.2775 -12.875 1.4375 C-10.895 1.4375 -8.915 1.4375 -6.875 1.4375 C-6.545 2.0975 -6.215 2.7575 -5.875 3.4375 C-5.50375 2.9425 -5.1325 2.4475 -4.75 1.9375 C-2.875 0.4375 -2.875 0.4375 0 0 Z " fill="#F46B01" transform="translate(442.875,334.5625)"/>
<path d="M0 0 C2.85038728 3.04593408 3.36487164 5.08069263 3.29296875 9.203125 C3.28330078 10.1828125 3.27363281 11.1625 3.26367188 12.171875 C3.23853516 13.18765625 3.21339844 14.2034375 3.1875 15.25 C3.16719727 16.796875 3.16719727 16.796875 3.14648438 18.375 C3.11117607 20.91719792 3.06186036 23.45833223 3 26 C1.02 26 -0.96 26 -3 26 C-3.33 19.4 -3.66 12.8 -4 6 C-8.60532389 4.54685336 -8.60532389 4.54685336 -11 6 C-11.33 12.6 -11.66 19.2 -12 26 C-13.98 26 -15.96 26 -18 26 C-18 17.42 -18 8.84 -18 0 C-16.35 0 -14.7 0 -13 0 C-13 0.99 -13 1.98 -13 3 C-12.34 3 -11.68 3 -11 3 C-10.67 2.01 -10.34 1.02 -10 0 C-6.82503506 -1.58748247 -3.30053472 -1.07839253 0 0 Z " fill="#D63322" transform="translate(391,399)"/>
<path d="M0 0 C2.31 0 4.62 0 7 0 C7 9.24 7 18.48 7 28 C11.62 28 16.24 28 21 28 C21 30.31 21 32.62 21 35 C14.07 35 7.14 35 0 35 C0 23.45 0 11.9 0 0 Z " fill="#FCFCFC" transform="translate(1753,47)"/>
<path d="M0 0 C2.25315168 1.91176506 2.76299983 2.8548317 3.0625 5.75 C1.06295254 5.79254356 -0.93791636 5.79080783 -2.9375 5.75 C-3.2675 5.42 -3.5975 5.09 -3.9375 4.75 C-6.27047433 4.70907063 -8.60455225 4.70758277 -10.9375 4.75 C-10.6075 6.07 -10.2775 7.39 -9.9375 8.75 C-9.17824219 8.93175781 -8.41898438 9.11351562 -7.63671875 9.30078125 C-6.64285156 9.55214844 -5.64898438 9.80351562 -4.625 10.0625 C-3.63886719 10.30613281 -2.65273438 10.54976563 -1.63671875 10.80078125 C1.11010486 11.76674093 2.36014673 12.41986862 4.0625 14.75 C4.5625 18.1875 4.5625 18.1875 4.0625 21.75 C1.38054984 24.52085459 -0.30107813 25.64405952 -4.12890625 26.28125 C-5.24136719 26.2709375 -6.35382812 26.260625 -7.5 26.25 C-8.61503906 26.2603125 -9.73007812 26.270625 -10.87890625 26.28125 C-14.53304628 25.64655901 -15.75025268 24.70198171 -17.9375 21.75 C-17.9375 20.76 -17.9375 19.77 -17.9375 18.75 C-15.9575 18.75 -13.9775 18.75 -11.9375 18.75 C-11.9375 19.41 -11.9375 20.07 -11.9375 20.75 C-9.2975 20.75 -6.6575 20.75 -3.9375 20.75 C-3.34679986 18.80396726 -3.34679986 18.80396726 -2.9375 16.75 C-4.54242337 15.14507663 -6.54557267 15.28284952 -8.75 14.9375 C-11.96866408 14.30666026 -13.80354508 13.83930328 -16.5625 12 C-18.41216684 8.97327244 -18.51878871 7.23773228 -17.9375 3.75 C-13.39544741 -2.04503261 -6.55592455 -2.78975513 0 0 Z " fill="#ED9D1D" transform="translate(879.9375,336.25)"/>
<path d="M0 0 C2.25315168 1.91176506 2.76299983 2.8548317 3.0625 5.75 C1.06295254 5.79254356 -0.93791636 5.79080783 -2.9375 5.75 C-3.2675 5.42 -3.5975 5.09 -3.9375 4.75 C-6.27047433 4.70907063 -8.60455225 4.70758277 -10.9375 4.75 C-10.9375 6.4 -10.9375 8.05 -10.9375 9.75 C-9.92429687 9.82347656 -9.92429687 9.82347656 -8.890625 9.8984375 C-7.99859375 9.97320312 -7.1065625 10.04796875 -6.1875 10.125 C-5.30578125 10.19460938 -4.4240625 10.26421875 -3.515625 10.3359375 C-0.91363712 10.75383252 0.83683233 11.35645133 3.0625 12.75 C4.62680248 15.87860495 4.41877284 18.30602925 4.0625 21.75 C1.38681267 24.5295495 -0.30028881 25.64392812 -4.12890625 26.28125 C-5.24136719 26.2709375 -6.35382812 26.260625 -7.5 26.25 C-8.61503906 26.2603125 -9.73007812 26.270625 -10.87890625 26.28125 C-14.53304628 25.64655901 -15.75025268 24.70198171 -17.9375 21.75 C-17.9375 20.76 -17.9375 19.77 -17.9375 18.75 C-15.9575 18.75 -13.9775 18.75 -11.9375 18.75 C-11.9375 19.41 -11.9375 20.07 -11.9375 20.75 C-9.2975 20.75 -6.6575 20.75 -3.9375 20.75 C-3.6075 19.43 -3.2775 18.11 -2.9375 16.75 C-3.96875 16.46125 -5 16.1725 -6.0625 15.875 C-7.35425715 15.50031182 -8.64592279 15.12530801 -9.9375 14.75 C-11.030625 14.440625 -12.12375 14.13125 -13.25 13.8125 C-15.9375 12.75 -15.9375 12.75 -17.9375 9.75 C-18.3125 6.8125 -18.3125 6.8125 -17.9375 3.75 C-13.39544741 -2.04503261 -6.55592455 -2.78975513 0 0 Z " fill="#ED9E1D" transform="translate(620.9375,336.25)"/>
<path d="M0 0 C1.98 0 3.96 0 6 0 C6.11698258 3.20802233 6.18750607 6.41549025 6.25 9.625 C6.28351563 10.52863281 6.31703125 11.43226563 6.3515625 12.36328125 C6.43753164 18.25216729 5.91882074 21.51512738 2 26 C-1.69990228 27.84995114 -5.96167141 27.46986842 -10 27 C-13.55680172 24.89495409 -14.69468936 23.91593192 -16 20 C-16.0806622 18.51876453 -16.10761193 17.03417796 -16.09765625 15.55078125 C-16.09443359 14.70322266 -16.09121094 13.85566406 -16.08789062 12.98242188 C-16.07951172 12.10134766 -16.07113281 11.22027344 -16.0625 10.3125 C-16.05798828 9.41982422 -16.05347656 8.52714844 -16.04882812 7.60742188 C-16.03704983 5.40488013 -16.02060164 3.20247401 -16 1 C-14.02 1 -12.04 1 -10 1 C-9.97494385 1.57032959 -9.9498877 2.14065918 -9.92407227 2.72827148 C-9.80843451 5.29826157 -9.68556376 7.86785527 -9.5625 10.4375 C-9.52318359 11.33533203 -9.48386719 12.23316406 -9.44335938 13.15820312 C-9.40146484 14.01220703 -9.35957031 14.86621094 -9.31640625 15.74609375 C-9.27974854 16.53685303 -9.24309082 17.3276123 -9.20532227 18.14233398 C-9.19436743 20.01401441 -9.19436743 20.01401441 -8 21 C-6.00041636 21.04080783 -3.99954746 21.04254356 -2 21 C-0.85345518 18.70691037 -0.80270883 17.20090344 -0.68359375 14.6484375 C-0.64169922 13.79765625 -0.59980469 12.946875 -0.55664062 12.0703125 C-0.51732422 11.18085938 -0.47800781 10.29140625 -0.4375 9.375 C-0.39431641 8.4778125 -0.35113281 7.580625 -0.30664062 6.65625 C-0.20043139 4.43765717 -0.09838806 2.2189512 0 0 Z " fill="#D43222" transform="translate(331,398)"/>
<path d="M0 0 C1.98 0 3.96 0 6 0 C6 2.64 6 5.28 6 8 C9.3 8 12.6 8 16 8 C16 9.65 16 11.3 16 13 C12.7 13 9.4 13 6 13 C6.33 17.95 6.66 22.9 7 28 C9.97 28.33 12.94 28.66 16 29 C16 30.65 16 32.3 16 34 C14.27305325 34.13609913 12.54295278 34.23249228 10.8125 34.3125 C9.84957031 34.37050781 8.88664063 34.42851562 7.89453125 34.48828125 C3.76812705 33.79219417 2.42454196 32.37327578 0 29 C-0.57269683 26.1924587 -0.47805002 23.53750729 -0.3125 20.6875 C-0.28994141 19.94693359 -0.26738281 19.20636719 -0.24414062 18.44335938 C-0.1855815 16.62802643 -0.09590886 14.81374319 0 13 C-2.31 13 -4.62 13 -7 13 C-7 11.35 -7 9.7 -7 8 C-4.69 8 -2.38 8 0 8 C0 5.36 0 2.72 0 0 Z " fill="#F0A01D" transform="translate(896,328)"/>
<path d="M0 0 C1.98 0 3.96 0 6 0 C6 2.64 6 5.28 6 8 C9.3 8 12.6 8 16 8 C16 9.65 16 11.3 16 13 C12.7 13 9.4 13 6 13 C6.33 17.95 6.66 22.9 7 28 C9.97 28.33 12.94 28.66 16 29 C16 30.65 16 32.3 16 34 C14.27305325 34.13609913 12.54295278 34.23249228 10.8125 34.3125 C9.84957031 34.37050781 8.88664063 34.42851562 7.89453125 34.48828125 C3.76812705 33.79219417 2.42454196 32.37327578 0 29 C-0.57269683 26.1924587 -0.47805002 23.53750729 -0.3125 20.6875 C-0.28994141 19.94693359 -0.26738281 19.20636719 -0.24414062 18.44335938 C-0.1855815 16.62802643 -0.09590886 14.81374319 0 13 C-2.31 13 -4.62 13 -7 13 C-7 11.35 -7 9.7 -7 8 C-4.69 8 -2.38 8 0 8 C0 5.36 0 2.72 0 0 Z " fill="#F0A01D" transform="translate(637,328)"/>
<path d="M0 0 C1.98 0 3.96 0 6 0 C6 2.64 6 5.28 6 8 C9.3 8 12.6 8 16 8 C16 9.65 16 11.3 16 13 C12.7 13 9.4 13 6 13 C6.33 17.95 6.66 22.9 7 28 C9.97 28.33 12.94 28.66 16 29 C16 30.65 16 32.3 16 34 C5.1005291 34.57142857 5.1005291 34.57142857 1 31 C-0.2062252 27.38132441 -0.10816918 24.07493749 -0.0625 20.3125 C-0.05798828 19.61060547 -0.05347656 18.90871094 -0.04882812 18.18554688 C-0.03706927 16.45699462 -0.01913454 14.72848635 0 13 C-2.31 13 -4.62 13 -7 13 C-7 11.35 -7 9.7 -7 8 C-4.69 8 -2.38 8 0 8 C0 5.36 0 2.72 0 0 Z " fill="#F9F9F9" transform="translate(378,328)"/>
<path d="M0 0 C1.98 0 3.96 0 6 0 C6 2.64 6 5.28 6 8 C9.3 8 12.6 8 16 8 C16 9.65 16 11.3 16 13 C12.7 13 9.4 13 6 13 C6.33 17.95 6.66 22.9 7 28 C9.64 28.33 12.28 28.66 15 29 C15 30.65 15 32.3 15 34 C13.43997572 34.1363128 11.87642824 34.23259126 10.3125 34.3125 C9.44238281 34.37050781 8.57226562 34.42851562 7.67578125 34.48828125 C3.70617977 33.76390142 2.35531381 32.23014466 0 29 C-0.57543928 26.1930753 -0.47804032 23.53734026 -0.3125 20.6875 C-0.28994141 19.94693359 -0.26738281 19.20636719 -0.24414062 18.44335938 C-0.1855815 16.62802643 -0.09590886 14.81374319 0 13 C-2.31 13 -4.62 13 -7 13 C-7 11.35 -7 9.7 -7 8 C-4.69 8 -2.38 8 0 8 C0 5.36 0 2.72 0 0 Z " fill="#DD3322" transform="translate(292,391)"/>
<path d="M0 0 C3.98066095 1.57724302 5.60667274 2.41000911 8 6 C8 7.32 8 8.64 8 10 C5.1875 10.25 5.1875 10.25 2 10 C0.125 8 0.125 8 -1 6 C-2.98 6.33 -4.96 6.66 -7 7 C-7.02685938 9.14576637 -7.04633088 11.29162645 -7.0625 13.4375 C-7.07410156 14.63246094 -7.08570313 15.82742188 -7.09765625 17.05859375 C-7.33901792 19.88873341 -7.33901792 19.88873341 -6 21 C-3.04195427 21.33340471 -3.04195427 21.33340471 0 21 C0.66 20.01 1.32 19.02 2 18 C5.125 17.8125 5.125 17.8125 8 18 C7.72960418 21.24474984 7.1742292 22.79204902 5.0625 25.3125 C0.76601667 27.67995 -3.18508747 27.67330484 -8 27 C-10.46807629 26.12579766 -11.6676971 25.45121001 -13.22265625 23.33984375 C-14.31803512 20.04269832 -14.37905264 17.03152266 -14.4375 13.5625 C-14.47746094 12.26441406 -14.51742187 10.96632813 -14.55859375 9.62890625 C-13.87151462 5.16529429 -12.46412939 3.78693117 -9 1 C-5.92805092 -0.53597454 -3.39755707 -0.2265038 0 0 Z " fill="#EC9D1D" transform="translate(214,335)"/>
<path d="M0 0 C4.95 0 9.9 0 15 0 C15.33 9.57 15.66 19.14 16 29 C19.3 29.33 22.6 29.66 26 30 C26 31.65 26 33.3 26 35 C23.91781638 35.10832169 21.83400871 35.18573541 19.75 35.25 C18.58984375 35.29640625 17.4296875 35.3428125 16.234375 35.390625 C13 35 13 35 10.82226562 33.35546875 C8.48967257 30.34034847 8.53527355 28.70104901 8.609375 24.921875 C8.62226562 23.76171875 8.63515625 22.6015625 8.6484375 21.40625 C8.68195312 20.1996875 8.71546875 18.993125 8.75 17.75 C8.76804687 16.52796875 8.78609375 15.3059375 8.8046875 14.046875 C8.851819 11.03045922 8.91760587 8.01562509 9 5 C6.03 5 3.06 5 0 5 C0 3.35 0 1.7 0 0 Z " fill="#25A55C" transform="translate(543,390)"/>
<path d="M0 0 C0.3125 2.8125 0.3125 2.8125 0 6 C-2.3125 7.625 -2.3125 7.625 -5 9 C-7.69320945 11.50769146 -8.21620027 13.56769437 -8.3984375 17.1171875 C-8.40638042 18.70312435 -8.39805671 20.28921087 -8.375 21.875 C-8.38660156 22.66519531 -8.39820313 23.45539063 -8.41015625 24.26953125 C-8.38540234 29.22856457 -7.77873235 32.7295966 -5 37 C-4.113125 37.515625 -3.22625 38.03125 -2.3125 38.5625 C-1.549375 39.036875 -0.78625 39.51125 0 40 C0.3125 42.6875 0.3125 42.6875 0 45 C-4.4405471 44.68281806 -7.12016293 43.5265916 -10.60546875 40.7421875 C-14.98457388 35.27137269 -15.47673797 29.73731454 -15.375 23 C-15.38660156 22.23171875 -15.39820313 21.4634375 -15.41015625 20.671875 C-15.37924533 14.61333516 -14.41958606 9.70519421 -10.24609375 5.0390625 C-9.64925781 4.57242187 -9.05242187 4.10578125 -8.4375 3.625 C-7.83808594 3.14289063 -7.23867188 2.66078125 -6.62109375 2.1640625 C-4.13531621 0.37909453 -3.15435465 0 0 0 Z " fill="#F6F6F6" transform="translate(421,322)"/>
<path d="M0 0 C4.95 0 9.9 0 15 0 C15.33 9.57 15.66 19.14 16 29 C19.3 29.33 22.6 29.66 26 30 C26 31.65 26 33.3 26 35 C24.10617836 35.13592021 22.20950296 35.2324094 20.3125 35.3125 C19.25675781 35.37050781 18.20101562 35.42851562 17.11328125 35.48828125 C14 35 14 35 11.125 33.28125 C7.80149938 28.14937404 8.47020162 23.1548479 8.6875 17.1875 C8.72133789 15.43276367 8.72133789 15.43276367 8.75585938 13.64257812 C8.81467909 10.76041231 8.89682859 7.88086319 9 5 C6.03 5 3.06 5 0 5 C0 3.35 0 1.7 0 0 Z " fill="#26A75C" transform="translate(514,390)"/>
<path d="M0 0 C1.98 0 3.96 0 6 0 C8.14710968 5.62338249 10.13236819 11.27789404 12 17 C14.14710968 11.37661751 16.13236819 5.72210596 18 0 C19.98 0 21.96 0 24 0 C22.82981326 5.9573143 21.23930991 11.70842209 19.4375 17.5 C19.21553955 18.21865234 18.9935791 18.93730469 18.76489258 19.67773438 C17.12575354 24.87424646 17.12575354 24.87424646 16 26 C13.32941149 26.14115161 10.67567762 26.04247107 8 26 C6.6618184 22.04328884 5.330278 18.08437472 4 14.125 C3.6184375 12.99707031 3.236875 11.86914062 2.84375 10.70703125 C2.4828125 9.63066406 2.121875 8.55429688 1.75 7.4453125 C1.41484375 6.45031738 1.0796875 5.45532227 0.734375 4.43017578 C0 2 0 2 0 0 Z " fill="#26A75D" transform="translate(1693,56)"/>
<path d="M0 0 C6.18773225 1.726809 9.53288092 3.97775478 13.3125 9.1875 C15.3341416 13.54306929 15.3943445 17.84128798 15.4375 22.5625 C15.4475708 23.28268311 15.4576416 24.00286621 15.46801758 24.74487305 C15.3735399 30.60181923 14.22025454 35.35884412 10.3515625 39.9609375 C6.99523713 42.70978316 4.50810194 44.7267817 0 45 C-0.3125 42.1875 -0.3125 42.1875 0 39 C1.63064764 37.94228261 3.30280873 36.94726954 5 36 C7.91168315 31.3967676 8.49265153 27.33465734 8.4375 22 C8.45748047 21.31421875 8.47746094 20.6284375 8.49804688 19.921875 C8.49317346 14.81453802 7.20387954 11.92045888 4 8 C1.89960669 6.61131484 1.89960669 6.61131484 0 6 C0 4.02 0 2.04 0 0 Z " fill="#F4F4F4" transform="translate(778,322)"/>
<path d="M0 0 C4.29 0 8.58 0 13 0 C13 6.93 13 13.86 13 21 C15.97 21 18.94 21 22 21 C22 22.65 22 24.3 22 26 C14.08 26 6.16 26 -2 26 C-2 24.35 -2 22.7 -2 21 C0.97 21 3.94 21 7 21 C7 15.72 7 10.44 7 5 C4.69 5 2.38 5 0 5 C0 3.35 0 1.7 0 0 Z " fill="#ED9E1D" transform="translate(950,336)"/>
<path d="M0 0 C4.29 0 8.58 0 13 0 C13 6.93 13 13.86 13 21 C15.64 21 18.28 21 21 21 C21 22.65 21 24.3 21 26 C13.41 26 5.82 26 -2 26 C-2 24.35 -2 22.7 -2 21 C0.97 21 3.94 21 7 21 C7 15.72 7 10.44 7 5 C4.69 5 2.38 5 0 5 C0 3.35 0 1.7 0 0 Z " fill="#EF9F1D" transform="translate(691,336)"/>
<path d="M0 0 C1.98 0 3.96 0 6 0 C6.33 0.99 6.66 1.98 7 3 C7.60328125 2.25556641 7.60328125 2.25556641 8.21875 1.49609375 C10 0 10 0 12.15625 -0.21484375 C18.39511202 0.52342159 18.39511202 0.52342159 21.0625 2.625 C22.32679911 5.82789108 22.19659468 8.59235886 22 12 C20.02 12 18.04 12 16 12 C15.67 10.35 15.34 8.7 15 7 C12.09926819 6.32198966 12.09926819 6.32198966 9 6 C6.6031335 8.3968665 6.71718867 9.07028314 6.5859375 12.3515625 C6.52792969 13.62773437 6.52792969 13.62773437 6.46875 14.9296875 C6.4378125 15.81914062 6.406875 16.70859375 6.375 17.625 C6.31699219 18.97078125 6.31699219 18.97078125 6.2578125 20.34375 C6.16340643 22.5622927 6.07783252 24.78082403 6 27 C4.02 27 2.04 27 0 27 C0 18.09 0 9.18 0 0 Z " fill="#E79A1D" transform="translate(920,335)"/>
<path d="M0 0 C1.98 0 3.96 0 6 0 C6.33 0.99 6.66 1.98 7 3 C7.60328125 2.25556641 7.60328125 2.25556641 8.21875 1.49609375 C10 0 10 0 12.15625 -0.21484375 C18.39511202 0.52342159 18.39511202 0.52342159 21.0625 2.625 C22.32679911 5.82789108 22.19659468 8.59235886 22 12 C20.02 12 18.04 12 16 12 C15.67 10.35 15.34 8.7 15 7 C12.09926819 6.32198966 12.09926819 6.32198966 9 6 C6.6031335 8.3968665 6.71718867 9.07028314 6.5859375 12.3515625 C6.52792969 13.62773437 6.52792969 13.62773437 6.46875 14.9296875 C6.4378125 15.81914062 6.406875 16.70859375 6.375 17.625 C6.31699219 18.97078125 6.31699219 18.97078125 6.2578125 20.34375 C6.16340643 22.5622927 6.07783252 24.78082403 6 27 C4.02 27 2.04 27 0 27 C0 18.09 0 9.18 0 0 Z " fill="#E79A1D" transform="translate(661,335)"/>
<path d="M0 0 C2.0625 1.625 2.0625 1.625 3 4 C3.1875 7.75 3.1875 7.75 3 11 C1.02 11 -0.96 11 -3 11 C-3.33 9.35 -3.66 7.7 -4 6 C-6.90073181 5.32198966 -6.90073181 5.32198966 -10 5 C-12.3968665 7.3968665 -12.28281133 8.07028314 -12.4140625 11.3515625 C-12.47207031 12.62773437 -12.47207031 12.62773437 -12.53125 13.9296875 C-12.5621875 14.81914062 -12.593125 15.70859375 -12.625 16.625 C-12.68300781 17.97078125 -12.68300781 17.97078125 -12.7421875 19.34375 C-12.83659357 21.5622927 -12.92216748 23.78082403 -13 26 C-14.98 26 -16.96 26 -19 26 C-19 17.42 -19 8.84 -19 0 C-16.33333333 0 -13.66666667 0 -11 0 C-7.5091862 -1.7454069 -3.70927465 -0.86278 0 0 Z " fill="#EC9D1D" transform="translate(162,336)"/>
<path d="M0 0 C3.34265205 1.20706879 3.94704566 1.92056849 6 5 C6.07905064 7.33199388 6.08798769 9.66832622 6 12 C4.02 12 2.04 12 0 12 C-0.3403125 10.7934375 -0.3403125 10.7934375 -0.6875 9.5625 C-1.74514268 6.77795145 -1.74514268 6.77795145 -4.4375 6.125 C-7.12077174 5.83910476 -7.12077174 5.83910476 -10 7 C-10 13.6 -10 20.2 -10 27 C-11.98 27 -13.96 27 -16 27 C-16 18.42 -16 9.84 -16 1 C-13.33333333 1 -10.66666667 1 -8 1 C-5.2201184 -0.3899408 -3.0813674 -0.18488204 0 0 Z " fill="#26A85D" transform="translate(1740,55)"/>
<path d="M0 0 C2.75329021 1.79562405 4.52627461 3.05254922 6 6 C6.039992 7.99960012 6.04346799 10.00047242 6 12 C3.69 12 1.38 12 -1 12 C-1.66 10.02 -2.32 8.04 -3 6 C-4.66611905 5.957279 -6.33382885 5.95936168 -8 6 C-9.58403524 7.58403524 -9.21974935 9.2771638 -9.31640625 11.47265625 C-9.35830078 12.37177734 -9.40019531 13.27089844 -9.44335938 14.19726562 C-9.50233398 15.61555664 -9.50233398 15.61555664 -9.5625 17.0625 C-9.62727539 18.4865918 -9.62727539 18.4865918 -9.69335938 19.93945312 C-9.79979276 22.29281353 -9.90181008 24.64628354 -10 27 C-11.98 27 -13.96 27 -16 27 C-16 18.42 -16 9.84 -16 1 C-14.35 1 -12.7 1 -11 1 C-10.67 1.66 -10.34 2.32 -10 3 C-9.649375 2.505 -9.29875 2.01 -8.9375 1.5 C-5.9298418 -0.82850957 -3.69312806 -0.44572235 0 0 Z " fill="#D23222" transform="translate(246,398)"/>
<path d="M0 0 C3.34265205 1.20706879 3.94704566 1.92056849 6 5 C6.07905064 7.33199388 6.08798769 9.66832622 6 12 C4.02 12 2.04 12 0 12 C-0.66 10.02 -1.32 8.04 -2 6 C-4.41645782 5.83312552 -4.41645782 5.83312552 -7 6 C-9.3968665 8.3968665 -9.28281133 9.07028314 -9.4140625 12.3515625 C-9.47207031 13.62773437 -9.47207031 13.62773437 -9.53125 14.9296875 C-9.5621875 15.81914062 -9.593125 16.70859375 -9.625 17.625 C-9.68300781 18.97078125 -9.68300781 18.97078125 -9.7421875 20.34375 C-9.83659357 22.5622927 -9.92216748 24.78082403 -10 27 C-11.98 27 -13.96 27 -16 27 C-16 18.42 -16 9.84 -16 1 C-13.33333333 1 -10.66666667 1 -8 1 C-5.2201184 -0.3899408 -3.0813674 -0.18488204 0 0 Z " fill="#F4F4F4" transform="translate(303,335)"/>
<path d="M0 0 C2.69990662 1.79993774 4.5418865 3.083773 6 6 C6.039992 7.99960012 6.04346799 10.00047242 6 12 C4.02 12 2.04 12 0 12 C-0.309375 11.195625 -0.61875 10.39125 -0.9375 9.5625 C-1.76335345 7.10919595 -1.76335345 7.10919595 -3 6 C-5.5 5.83333333 -5.5 5.83333333 -8 6 C-9.58403524 7.58403524 -9.21974935 9.2771638 -9.31640625 11.47265625 C-9.35830078 12.37177734 -9.40019531 13.27089844 -9.44335938 14.19726562 C-9.50233398 15.61555664 -9.50233398 15.61555664 -9.5625 17.0625 C-9.62727539 18.4865918 -9.62727539 18.4865918 -9.69335938 19.93945312 C-9.79979276 22.29281353 -9.90181008 24.64628354 -10 27 C-11.98 27 -13.96 27 -16 27 C-16 18.42 -16 9.84 -16 1 C-14.35 1 -12.7 1 -11 1 C-10.67 1.66 -10.34 2.32 -10 3 C-9.46375 2.505 -8.9275 2.01 -8.375 1.5 C-5.28147204 -0.45380713 -3.60630834 -0.51518691 0 0 Z " fill="#D63322" transform="translate(361,398)"/>
<path d="M0 0 C1.98 0 3.96 0 6 0 C6 2.64 6 5.28 6 8 C8.97 8 11.94 8 15 8 C15 9.98 15 11.96 15 14 C12.03 14 9.06 14 6 14 C6 16.97 6 19.94 6 23 C4.02 23 2.04 23 0 23 C0 20.03 0 17.06 0 14 C-2.97 14 -5.94 14 -9 14 C-9 12.02 -9 10.04 -9 8 C-6.03 8 -3.06 8 0 8 C0 5.36 0 2.72 0 0 Z " fill="#EDEEEE" transform="translate(668,398)"/>
<path d="M0 0 C1.98 0 3.96 0 6 0 C7.05556451 5.7626003 6.94831638 11.1059076 6.5625 16.9375 C6.51029297 17.81212891 6.45808594 18.68675781 6.40429688 19.58789062 C6.2757979 21.72564632 6.13877359 23.86288669 6 26 C4.02 26 2.04 26 0 26 C0 17.42 0 8.84 0 0 Z " fill="#F1A11D" transform="translate(977,336)"/>
<path d="M0 0 C2.4375 0.8125 2.4375 0.8125 4.4375 2.8125 C4.703125 5.5625 4.703125 5.5625 4.6875 8.8125 C4.69265625 9.885 4.6978125 10.9575 4.703125 12.0625 C4.4375 14.8125 4.4375 14.8125 2.4375 16.8125 C-0.5625 17.0625 -0.5625 17.0625 -3.5625 16.8125 C-6.25351234 14.12148766 -5.86137549 12.62174054 -5.875 8.875 C-5.89175781 7.81410156 -5.90851563 6.75320313 -5.92578125 5.66015625 C-5.5625 2.8125 -5.5625 2.8125 -4.203125 0.921875 C-2.5625 -0.1875 -2.5625 -0.1875 0 0 Z " fill="#1A1E1D" transform="translate(182.5625,340.1875)"/>
<path d="M0 0 C3 0.25 3 0.25 5 2.25 C5.265625 4.74609375 5.265625 4.74609375 5.25 7.6875 C5.25515625 8.65558594 5.2603125 9.62367188 5.265625 10.62109375 C5 13.25 5 13.25 3 16.25 C0 16.5625 0 16.5625 -3 16.25 C-5 14.25 -5 14.25 -5.265625 11.5 C-5.26046875 10.4275 -5.2553125 9.355 -5.25 8.25 C-5.25515625 7.1775 -5.2603125 6.105 -5.265625 5 C-4.88124604 1.02054722 -3.9528269 0.32940224 0 0 Z " fill="#141C1E" transform="translate(585,403.75)"/>
<path d="M0 0 C4.75 0.75 4.75 0.75 7 3 C7.22705078 5.43017578 7.22705078 5.43017578 7.1953125 8.4453125 C7.18564453 10.05986328 7.18564453 10.05986328 7.17578125 11.70703125 C7.15902344 12.83496094 7.14226563 13.96289062 7.125 15.125 C7.11597656 16.26066406 7.10695313 17.39632813 7.09765625 18.56640625 C7.07403098 21.37781299 7.04109013 24.18880298 7 27 C5.35 27 3.7 27 2 27 C1.67 19.74 1.34 12.48 1 5 C0.01 4.67 -0.98 4.34 -2 4 C-1.34 2.68 -0.68 1.36 0 0 Z " fill="#FC6E00" transform="translate(791,398)"/>
<path d="M0 0 C2.375 0.6875 2.375 0.6875 3.375 1.6875 C3.50037741 3.83057896 3.55074364 5.97828886 3.5625 8.125 C3.57667969 9.29933594 3.59085938 10.47367187 3.60546875 11.68359375 C3.375 14.6875 3.375 14.6875 1.375 16.6875 C-1.125 16.9375 -1.125 16.9375 -3.625 16.6875 C-6.41279879 13.89970121 -5.92461733 12.06947673 -5.9375 8.1875 C-5.95425781 7.0221875 -5.97101563 5.856875 -5.98828125 4.65625 C-5.86839844 3.6765625 -5.74851562 2.696875 -5.625 1.6875 C-2.625 -0.3125 -2.625 -0.3125 0 0 Z " fill="#181D1D" transform="translate(125.625,340.3125)"/>
<path d="M0 0 C2.4375 0.8125 2.4375 0.8125 4.4375 2.8125 C4.703125 5.125 4.703125 5.125 4.6875 7.8125 C4.69265625 8.699375 4.6978125 9.58625 4.703125 10.5 C4.4375 12.8125 4.4375 12.8125 2.4375 14.8125 C-0.5625 15.125 -0.5625 15.125 -3.5625 14.8125 C-5.62770632 11.71469052 -5.85727024 10.8584519 -5.875 7.3125 C-5.89175781 6.5390625 -5.90851563 5.765625 -5.92578125 4.96875 C-5.30392048 1.2777054 -3.73881028 -0.27357148 0 0 Z " fill="#21272A" transform="translate(268.5625,340.1875)"/>
<path d="M0 0 C1.32 0 2.64 0 4 0 C5.01973129 3.05919388 5.11533602 5.12418025 5.09765625 8.32421875 C5.09282227 9.86625977 5.09282227 9.86625977 5.08789062 11.43945312 C5.07951172 12.51130859 5.07113281 13.58316406 5.0625 14.6875 C5.05798828 15.77095703 5.05347656 16.85441406 5.04882812 17.97070312 C5.03703743 20.64719085 5.02058063 23.32356777 5 26 C3.35 26 1.7 26 0 26 C0 17.42 0 8.84 0 0 Z " fill="#F56B01" transform="translate(775,399)"/>
<path d="M0 0 C1.32 0 2.64 0 4 0 C5.01973129 3.05919388 5.11533602 5.12418025 5.09765625 8.32421875 C5.09282227 9.86625977 5.09282227 9.86625977 5.08789062 11.43945312 C5.07951172 12.51130859 5.07113281 13.58316406 5.0625 14.6875 C5.05798828 15.77095703 5.05347656 16.85441406 5.04882812 17.97070312 C5.03703743 20.64719085 5.02058063 23.32356777 5 26 C3.35 26 1.7 26 0 26 C0 17.42 0 8.84 0 0 Z " fill="#FA6D00" transform="translate(487,336)"/>
<path d="M0 0 C2.5 0.25 2.5 0.25 4.5 2.25 C4.765625 4.78125 4.765625 4.78125 4.75 7.75 C4.75515625 8.7296875 4.7603125 9.709375 4.765625 10.71875 C4.5 13.25 4.5 13.25 2.5 15.25 C-0.625 15.375 -0.625 15.375 -3.5 15.25 C-4.80089831 12.64820337 -4.66840078 10.6530812 -4.6875 7.75 C-4.70167969 6.7703125 -4.71585938 5.790625 -4.73046875 4.78125 C-4.4102661 1.26444798 -3.51624466 0.35162447 0 0 Z " fill="#1B1F1D" transform="translate(1016.5,339.75)"/>
<path d="M0 0 C2.5 0.25 2.5 0.25 4.5 2.25 C4.765625 4.78125 4.765625 4.78125 4.75 7.75 C4.75515625 8.7296875 4.7603125 9.709375 4.765625 10.71875 C4.5 13.25 4.5 13.25 2.5 15.25 C-0.625 15.375 -0.625 15.375 -3.5 15.25 C-4.80089831 12.64820337 -4.66840078 10.6530812 -4.6875 7.75 C-4.70167969 6.7703125 -4.71585938 5.790625 -4.73046875 4.78125 C-4.4102661 1.26444798 -3.51624466 0.35162447 0 0 Z " fill="#1C1F1D" transform="translate(757.5,339.75)"/>
<path d="M0 0 C2.64 0 5.28 0 8 0 C6.36041242 5.23272633 4.61047965 10.15196636 2 15 C0.35 15 -1.3 15 -3 15 C-2.35812082 9.86496656 -1.31727753 5.0056546 0 0 Z " fill="#ECECED" transform="translate(840,418)"/>
<path d="M0 0 C1.65 0 3.3 0 5 0 C4.68917128 1.75029762 4.37626821 3.50022694 4.0625 5.25 C3.88847656 6.22453125 3.71445312 7.1990625 3.53515625 8.203125 C3.09620271 10.49721795 2.59651408 12.74291971 2 15 C-0.64 15 -3.28 15 -6 15 C-4.36041242 9.76727367 -2.61047965 4.84803364 0 0 Z " fill="#25A35B" transform="translate(447,388)"/>
<path d="M0 0 C2.31 0 4.62 0 7 0 C6.37321829 3.66172475 5.35548154 6.8818995 3.9375 10.3125 C3.57527344 11.19550781 3.21304688 12.07851563 2.83984375 12.98828125 C2.42412109 13.98408203 2.42412109 13.98408203 2 15 C0.02 15 -1.96 15 -4 15 C-3.52229477 13.06213915 -3.04278429 11.12472326 -2.5625 9.1875 C-2.29566406 8.10855469 -2.02882813 7.02960938 -1.75390625 5.91796875 C-1.23922588 3.9259157 -0.65062825 1.95188476 0 0 Z " fill="#25A35B" transform="translate(606,388)"/>
<path d="M0 0 C2.31 0 4.62 0 7 0 C3.76746725 11.80676856 3.76746725 11.80676856 1 15 C-1.6015625 15.1171875 -1.6015625 15.1171875 -4 15 C-2.07289294 4.44191344 -2.07289294 4.44191344 0 0 Z " fill="#25A45B" transform="translate(618,388)"/>
<path d="M0 0 C1.65 0 3.3 0 5 0 C4.68917128 1.75029762 4.37626821 3.50022694 4.0625 5.25 C3.88847656 6.22453125 3.71445312 7.1990625 3.53515625 8.203125 C3.09620271 10.49721795 2.59651408 12.74291971 2 15 C-0.64 15 -3.28 15 -6 15 C-4.64475824 9.57903298 -2.63365987 4.9221313 0 0 Z " fill="#25A45B" transform="translate(435,388)"/>
<path d="M0 0 C4.55555556 0.55555556 4.55555556 0.55555556 6 2 C6.09823937 3.66429051 6.12973631 5.33281931 6.125 7 C6.12757812 7.9075 6.13015625 8.815 6.1328125 9.75 C6 12 6 12 5 13 C2 13.125 2 13.125 -1 13 C-2.66561399 11.33438601 -2.17115945 9.34037295 -2.1875 7.0625 C-2.20167969 6.16660156 -2.21585938 5.27070312 -2.23046875 4.34765625 C-2 2 -2 2 0 0 Z " fill="#1E2427" transform="translate(1847,61)"/>
<path d="M0 0 C1.23556641 0.01740234 1.23556641 0.01740234 2.49609375 0.03515625 C3.32238281 0.04417969 4.14867187 0.05320312 5 0.0625 C5.63808594 0.07410156 6.27617187 0.08570313 6.93359375 0.09765625 C7.18359375 2.41015625 7.18359375 2.41015625 6.93359375 5.09765625 C4.76976407 7.42176961 3.46414135 8.03449582 0.30859375 8.41015625 C-2.06640625 8.09765625 -2.06640625 8.09765625 -4.06640625 6.09765625 C-3.34205084 0.15794191 -3.34205084 0.15794191 0 0 Z " fill="#25211B" transform="translate(468.06640625,349.90234375)"/>
<path d="M0 0 C2.05078125 0.03255208 4.1015625 0.06510417 6.15234375 0.09765625 C6.33984375 2.97265625 6.33984375 2.97265625 6.15234375 6.09765625 C2.92860698 8.2468141 1.88530701 8.48052428 -1.84765625 8.09765625 C-2.50765625 7.43765625 -3.16765625 6.77765625 -3.84765625 6.09765625 C-3.12417691 0.16512563 -3.12417691 0.16512563 0 0 Z " fill="#1C1E1C" transform="translate(755.84765625,412.90234375)"/>
<path d="M0 0 C2.5625 0.1875 2.5625 0.1875 4.5625 2.1875 C4.75 4.75 4.75 4.75 4.5625 7.1875 C3.5625 8.1875 3.5625 8.1875 0.625 8.375 C-2.4375 8.1875 -2.4375 8.1875 -4.4375 6.1875 C-3.71780303 0.28598485 -3.71780303 0.28598485 0 0 Z " fill="#ECECED" transform="translate(843.4375,397.8125)"/>
<path d="M0 0 C0.625 2.375 0.625 2.375 1 5 C-1 7 -1 7 -4.0625 7.1875 C-7 7 -7 7 -8 6 C-8.04080783 4.00041636 -8.04254356 1.99954746 -8 0 C-5.13822943 -1.43088528 -3.06624227 -0.59991697 0 0 Z " fill="#ECECED" transform="translate(819,336)"/>
<path d="M0 0 C0.625 2.375 0.625 2.375 1 5 C-1 7 -1 7 -4.0625 7.1875 C-7 7 -7 7 -8 6 C-8.04080783 4.00041636 -8.04254356 1.99954746 -8 0 C-5.13822943 -1.43088528 -3.06624227 -0.59991697 0 0 Z " fill="#ECEDED" transform="translate(560,336)"/>
<path d="M0 0 C3.29714793 0.32971479 4.6226839 0.6226839 7 3 C6.46428571 6.53571429 6.46428571 6.53571429 5 8 C2 8.125 2 8.125 -1 8 C-2 7 -2 7 -2.1875 4.5625 C-2 2 -2 2 0 0 Z " fill="#EEEFEF" transform="translate(813,354)"/>
<path d="M0 0 C3.0625 0.1875 3.0625 0.1875 5.0625 2.1875 C4.52678571 5.72321429 4.52678571 5.72321429 3.0625 7.1875 C0.0625 7.3125 0.0625 7.3125 -2.9375 7.1875 C-3.9375 6.1875 -3.9375 6.1875 -4.0625 3.6875 C-3.88162605 0.07002102 -3.66418153 0.23388393 0 0 Z " fill="#F5F5F5" transform="translate(555.9375,354.8125)"/>
<path d="M0 0 C1.670625 0.061875 1.670625 0.061875 3.375 0.125 C3.5625 2.5 3.5625 2.5 3.375 5.125 C0.14708445 7.2769437 -0.90900809 7.32586443 -4.625 7.125 C-5.25 4.75 -5.25 4.75 -5.625 2.125 C-3.625 0.125 -3.625 0.125 0 0 Z " fill="#272D30" transform="translate(1792.625,69.875)"/>
<path d="M0 0 C3.0625 0.1875 3.0625 0.1875 5.0625 2.1875 C5.0625 3.5075 5.0625 4.8275 5.0625 6.1875 C1.7625 6.1875 -1.5375 6.1875 -4.9375 6.1875 C-3.87127483 0.24710265 -3.87127483 0.24710265 0 0 Z " fill="#191C1D" transform="translate(814.9375,402.8125)"/>
<path d="M0 0 C3.0625 0.1875 3.0625 0.1875 5.0625 2.1875 C5.0625 3.5075 5.0625 4.8275 5.0625 6.1875 C1.7625 6.1875 -1.5375 6.1875 -4.9375 6.1875 C-3.87127483 0.24710265 -3.87127483 0.24710265 0 0 Z " fill="#1D1E1C" transform="translate(526.9375,339.8125)"/>
<path d="M0 0 C3.0625 0.1875 3.0625 0.1875 5.0625 2.1875 C5.0625 3.5075 5.0625 4.8275 5.0625 6.1875 C1.7625 6.1875 -1.5375 6.1875 -4.9375 6.1875 C-3.87127483 0.24710265 -3.87127483 0.24710265 0 0 Z " fill="#1C2225" transform="translate(354.9375,339.8125)"/>
<path d="M0 0 C3.0625 0.1875 3.0625 0.1875 5.0625 2.1875 C5.0625 3.5075 5.0625 4.8275 5.0625 6.1875 C1.7625 6.1875 -1.5375 6.1875 -4.9375 6.1875 C-3.87127483 0.24710265 -3.87127483 0.24710265 0 0 Z " fill="#1A2123" transform="translate(325.9375,339.8125)"/>
<path d="M0 0 C1.010625 0.0825 2.02125 0.165 3.0625 0.25 C5.0625 3.25 5.0625 3.25 5.0625 6.25 C1.7625 6.25 -1.5375 6.25 -4.9375 6.25 C-3.87489612 0.32977839 -3.87489612 0.32977839 0 0 Z " fill="#142020" transform="translate(498.9375,402.75)"/>
<path d="M0 0 C3.0625 0.1875 3.0625 0.1875 5.0625 2.1875 C5.0625 3.5075 5.0625 4.8275 5.0625 6.1875 C1.7625 6.1875 -1.5375 6.1875 -4.9375 6.1875 C-3.87127483 0.24710265 -3.87127483 0.24710265 0 0 Z " fill="#191B1E" transform="translate(267.9375,402.8125)"/>
<path d="M0 0 C2.625 0.375 2.625 0.375 5 1 C5.33 2.65 5.66 4.3 6 6 C3.69 6.33 1.38 6.66 -1 7 C-1.625 4.625 -1.625 4.625 -2 2 C-1.34 1.34 -0.68 0.68 0 0 Z " fill="#E2971D" transform="translate(699,324)"/>
<path d="M0 0 C2.625 0.375 2.625 0.375 5 1 C5.625 2.875 5.625 2.875 6 5 C4 7 4 7 1.375 7.125 C0.59125 7.08375 -0.1925 7.0425 -1 7 C-1.625 4.625 -1.625 4.625 -2 2 C-1.34 1.34 -0.68 0.68 0 0 Z " fill="#E4991D" transform="translate(958,324)"/>
</svg>
