<svg width="1920" height="1080" viewBox="0 0 1920 1080" fill="none" xmlns="http://www.w3.org/2000/svg">
<g clip-path="url(#clip0_2_2)">
<rect width="1920" height="1080" fill="white"/>
<rect width="1920" height="1080" fill="#141B1E"/>
<path d="M1537.6 633.179C1568.36 570.32 1599.09 467.839 1537.6 377.646C1476.14 467.839 1506.9 570.32 1537.6 633.179V633.179Z" stroke="#B3B9B8" stroke-width="10" stroke-linejoin="round"/>
<path d="M1521.8 275.862C1526.83 282.194 1532.08 288.759 1537.6 295.759C1543.12 288.759 1548.38 282.194 1553.43 275.862C1592.99 226.248 1616.4 196.765 1634.85 132.192C1603.24 126.818 1570.74 124 1537.6 124C1504.46 124 1471.99 126.818 1440.36 132.192C1458.8 196.765 1482.24 226.248 1521.77 275.862H1521.8Z" stroke="#B3B9B8" stroke-width="10" stroke-linejoin="round"/>
<path d="M1537.63 1279.14C1856.58 1279.14 2115.14 1020.56 2115.14 701.586C2115.14 432.865 1931.63 207.019 1683.09 142.504C1661.77 218.899 1633.33 254.599 1591.92 306.565C1584.63 315.744 1576.81 325.505 1568.51 336.223C1570.19 338.576 1571.93 340.958 1573.7 343.398C1609.28 392.343 1625.38 448.958 1621.57 511.759C1636.7 543.363 1655.85 571.045 1678.91 594.603C1741.5 617.376 1785.16 553.007 1786.99 550.276L1828.23 577.174C1813.65 599.541 1782.72 630.768 1741.88 643.316C1756.6 651.856 1772.26 659.38 1788.9 665.77C1847.31 688.195 1896.4 688.398 1897.56 688.398L1898 737.634C1895.73 737.634 1840.37 737.867 1773.16 712.45C1704.9 686.655 1648.87 643.578 1608.36 586.295C1598.1 621.705 1583.81 652.263 1571.55 674.659C1569.93 677.622 1568.3 680.526 1566.65 683.373C1598.54 729.791 1630.28 750.212 1661.16 770.052C1693.89 791.082 1727.76 812.839 1753.76 861.901L1710.25 884.965C1690.29 847.29 1665.69 831.488 1634.55 811.474C1624.59 805.054 1614.28 798.46 1603.77 790.908C1609.98 823.093 1612.31 853.709 1612.42 882.234C1678.47 902.742 1692.33 980.096 1692.94 983.698L1644.37 991.889C1644.02 990.001 1637.02 952.791 1610.24 935.392C1608.27 959.559 1605.25 981.548 1602.6 1000.89C1599.24 1025.5 1596.33 1046.73 1597.41 1060.12L1548.32 1064.07C1546.81 1045.37 1549.89 1022.77 1553.81 994.213C1562.93 927.52 1575.19 837.849 1537.57 736.327C1499.96 837.878 1512.21 927.52 1521.33 994.213C1525.26 1022.8 1528.33 1045.37 1526.82 1064.07L1477.74 1060.12C1478.81 1046.73 1475.91 1025.5 1472.54 1000.89C1469.9 981.548 1466.9 959.53 1464.9 935.392C1438.09 952.762 1431.09 990.001 1430.77 991.889L1382.21 983.698C1382.82 980.096 1396.67 902.713 1462.72 882.234C1462.84 853.709 1465.16 823.064 1471.38 790.908C1460.83 798.489 1450.55 805.083 1440.59 811.503C1409.45 831.517 1384.85 847.319 1364.9 884.994L1321.39 861.93C1347.38 812.868 1381.25 791.111 1413.98 770.081C1444.86 750.241 1476.6 729.82 1508.5 683.402C1506.84 680.555 1505.21 677.651 1503.59 674.688C1491.33 652.292 1477.04 621.763 1466.79 586.354C1426.24 643.607 1370.24 686.684 1301.98 712.479C1234.77 737.867 1179.41 737.663 1177.14 737.663L1177.58 688.427C1178.74 688.427 1227.8 688.224 1286.24 665.799C1302.88 659.409 1318.54 651.856 1333.26 643.345C1292.43 630.797 1261.52 599.599 1246.91 577.203L1288.16 550.305C1289.96 553.036 1333.64 617.406 1396.24 594.632C1419.3 571.074 1438.41 543.421 1453.57 511.788C1449.77 448.957 1465.89 392.373 1501.44 343.427C1503.21 340.987 1504.95 338.605 1506.67 336.252C1498.36 325.534 1490.55 315.774 1483.23 306.594C1441.81 254.628 1413.37 218.928 1392.05 142.533C1143.51 207.019 960 432.894 960 701.615C960.087 1020.56 1218.65 1279.14 1537.63 1279.14ZM1702.14 550.392L1670.11 511.875C1670.48 511.701 1706.33 494.446 1716.9 464.498L1759.86 489.45C1745.51 520.764 1717.71 540.981 1702.11 550.392H1702.14ZM1889.28 653.076C1881.56 652.728 1856.06 650.607 1835.35 638.175L1835.03 637.681C1838.63 635.27 1873.8 610.231 1878.89 546.645L1927.97 550.596C1924.02 599.599 1905.78 632.656 1889.26 653.076H1889.28ZM1596.56 678.057L1626.07 640.063C1643.44 667.978 1676.44 695.864 1701.33 712.072L1670.45 747.714C1643.88 729.85 1617.21 711.259 1596.56 678.057ZM1701.8 767.495C1701.07 767.06 1700.37 766.624 1699.65 766.217L1734.67 732.754C1771.21 755.208 1807.9 779.899 1832.18 826.782L1790.65 848.306C1770.49 809.382 1738.62 789.978 1701.77 767.495H1701.8ZM1765.32 894.173C1782.6 939.342 1778.5 970.656 1777.98 974.083L1729.65 973.938V974.228C1729.65 973.996 1731.89 944.687 1719.31 911.776L1765.29 894.202L1765.32 894.173ZM1646.67 1016.7H1695.9C1695.9 1057.83 1674.87 1082.95 1672.46 1085.68L1631.01 1062.85L1630.78 1063.14C1631.24 1062.56 1646.67 1039.35 1646.67 1016.73V1016.7ZM1428.56 1016.7C1428.56 1039.32 1443.99 1062.56 1444.45 1063.11L1444.22 1062.82L1402.77 1085.66C1400.36 1082.93 1379.33 1057.8 1379.33 1016.67H1428.56V1016.7ZM1355.89 911.776C1343.31 944.687 1345.55 974.025 1345.58 974.228V973.938L1297.22 974.083C1296.7 970.656 1292.63 939.371 1309.88 894.173L1355.86 911.747L1355.89 911.776ZM1449.16 640.092L1478.67 678.086C1458.02 711.288 1431.35 729.879 1404.78 747.743L1373.9 712.101C1398.82 695.893 1431.82 668.036 1449.16 640.092ZM1340.53 732.754L1375.56 766.217C1374.83 766.624 1374.13 767.06 1373.41 767.495C1336.55 789.978 1304.68 809.382 1284.53 848.306L1242.99 826.782C1267.3 779.899 1303.96 755.208 1340.5 732.754H1340.53ZM1358.33 464.498C1368.9 494.446 1404.75 511.701 1405.12 511.875L1373.09 550.392C1357.52 540.981 1329.72 520.764 1315.34 489.45L1358.3 464.498H1358.33ZM1196.31 546.645C1201.43 610.202 1236.57 635.27 1240.17 637.681L1239.85 638.175C1219.17 650.607 1193.67 652.757 1185.92 653.076C1169.39 632.656 1151.15 599.599 1147.2 550.596L1196.29 546.645H1196.31Z" stroke="#B3B9B8" stroke-width="10" stroke-linejoin="round"/>
</g>
<defs>
<clipPath id="clip0_2_2">
<rect width="1920" height="1080" fill="white"/>
</clipPath>
</defs>
</svg>
